<svg xmlns="http://www.w3.org/2000/svg" viewBox="0 0 780 520" font-family="Consolas, monospace">
  <rect width="780" height="520" fill="#0d1117"/>
  <text x="390" y="28" fill="#3fb950" font-size="14" text-anchor="middle" font-family="Segoe UI">Diagrama de clasa - STRUCTURA PROPUSA</text>

  <rect x="30" y="55" width="170" height="75" fill="#161b22" stroke="#1f6feb" rx="4"/>
  <text x="115" y="78" fill="#79c0ff" font-size="12" text-anchor="middle" font-weight="bold">OrderController</text>
  <text x="40" y="100" fill="#8b949e" font-size="10">- _orderService</text>
  <text x="40" y="118" fill="#d2a8ff" font-size="10">+ PostOrder(), DeleteOrder()</text>

  <rect x="240" y="45" width="200" height="95" fill="#161b22" stroke="#30363d" rx="4"/>
  <text x="340" y="68" fill="#e6edf3" font-size="12" text-anchor="middle" font-weight="bold">OrderService</text>
  <text x="250" y="88" fill="#8b949e" font-size="9">depinde de 4 interfete</text>
  <text x="250" y="105" fill="#d2a8ff" font-size="9">+ PlaceOrder(), CancelOrder()</text>
  <text x="250" y="122" fill="#3fb950" font-size="9">coeziune mare, cuplare mica</text>

  <rect x="480" y="40" width="170" height="55" fill="#1a0d2e" stroke="#3a1f5a" rx="4"/>
  <text x="565" y="58" fill="#bc8cff" font-size="10" text-anchor="middle">Ģinterfaceģ IOrderRepository</text>
  <text x="490" y="78" fill="#8b949e" font-size="9">+ FindById(), Save()</text>

  <rect x="480" y="105" width="170" height="55" fill="#1a0d2e" stroke="#3a1f5a" rx="4"/>
  <text x="565" y="123" fill="#bc8cff" font-size="10" text-anchor="middle">Ģinterfaceģ IStockService</text>

  <rect x="480" y="170" width="170" height="55" fill="#1a0d2e" stroke="#3a1f5a" rx="4"/>
  <text x="565" y="188" fill="#bc8cff" font-size="10" text-anchor="middle">Ģinterfaceģ IPaymentService</text>

  <rect x="480" y="235" width="170" height="55" fill="#1a0d2e" stroke="#3a1f5a" rx="4"/>
  <text x="565" y="253" fill="#bc8cff" font-size="10" text-anchor="middle">Ģinterfaceģ IEmailService</text>

  <rect x="30" y="200" width="185" height="85" fill="#0d2a1a" stroke="#1a4731" rx="4"/>
  <text x="122" y="222" fill="#3fb950" font-size="11" text-anchor="middle">InMemoryOrderRepository</text>
  <text x="40" y="242" fill="#6e7681" font-size="9">..|> IOrderRepository</text>

  <rect x="30" y="300" width="170" height="60" fill="#0d2a1a" stroke="#1a4731" rx="4"/>
  <text x="115" y="322" fill="#3fb950" font-size="10" text-anchor="middle">InMemoryStockService</text>

  <rect x="30" y="375" width="175" height="60" fill="#0d2a1a" stroke="#1a4731" rx="4"/>
  <text x="117" y="397" fill="#3fb950" font-size="10" text-anchor="middle">PaymentGatewayService</text>

  <rect x="30" y="450" width="155" height="55" fill="#0d2a1a" stroke="#1a4731" rx="4"/>
  <text x="107" y="472" fill="#3fb950" font-size="10" text-anchor="middle">SmtpEmailService</text>

  <rect x="260" y="280" width="190" height="100" fill="#161b22" stroke="#30363d" rx="4"/>
  <text x="355" y="302" fill="#e6edf3" font-size="12" text-anchor="middle" font-weight="bold">Order</text>
  <text x="270" y="325" fill="#d2a8ff" font-size="9">+ CanBeCancelled(), Confirm(), Cancel()</text>

  <line x1="200" y1="92" x2="240" y2="92" stroke="#6e7681"/>
  <line x1="440" y1="92" x2="480" y2="67" stroke="#6e7681" stroke-dasharray="4,3"/>
  <line x1="440" y1="100" x2="480" y2="130" stroke="#6e7681" stroke-dasharray="4,3"/>
  <line x1="440" y1="110" x2="480" y2="195" stroke="#6e7681" stroke-dasharray="4,3"/>
  <line x1="440" y1="120" x2="480" y2="260" stroke="#6e7681" stroke-dasharray="4,3"/>
  <line x1="215" y1="240" x2="480" y2="67" stroke="#6e7681" stroke-dasharray="4,3"/>
  <line x1="340" y1="140" x2="355" y2="280" stroke="#6e7681"/>
</svg>
