<svg xmlns="http://www.w3.org/2000/svg" viewBox="0 0 820 420" font-family="Segoe UI, Arial, sans-serif">
  <rect width="820" height="420" fill="#0d1117"/>
  <rect x="200" y="40" width="480" height="340" fill="none" stroke="#30363d" stroke-width="2" stroke-dasharray="8,4" rx="6"/>
  <text x="440" y="32" fill="#8b949e" font-size="13" text-anchor="middle">Sistem Gestiune Comenzi</text>

  <g fill="#161b22" stroke="#3d4450" stroke-width="1.5">
    <ellipse cx="320" cy="100" rx="95" ry="28"/><text x="320" y="105" fill="#e6edf3" font-size="12" text-anchor="middle">Plaseaza comanda</text>
    <ellipse cx="320" cy="170" rx="95" ry="28"/><text x="320" y="175" fill="#e6edf3" font-size="12" text-anchor="middle">Anuleaza comanda</text>
    <ellipse cx="320" cy="240" rx="100" ry="28"/><text x="320" y="245" fill="#e6edf3" font-size="12" text-anchor="middle">Vizualizeaza comanda</text>
    <ellipse cx="520" cy="100" rx="88" ry="28"/><text x="520" y="105" fill="#e6edf3" font-size="12" text-anchor="middle">Verifica stoc</text>
    <ellipse cx="520" cy="170" rx="100" ry="28"/><text x="520" y="175" fill="#e6edf3" font-size="12" text-anchor="middle">Proceseaza plata</text>
    <ellipse cx="520" cy="240" rx="115" ry="28"/><text x="520" y="245" fill="#e6edf3" font-size="12" text-anchor="middle">Trimite confirmare email</text>
    <ellipse cx="400" cy="320" rx="110" ry="28"/><text x="400" y="325" fill="#e6edf3" font-size="12" text-anchor="middle">Actualizeaza status</text>
    <ellipse cx="560" cy="320" rx="120" ry="28"/><text x="560" y="325" fill="#e6edf3" font-size="12" text-anchor="middle">Genereaza raport vanzari</text>
    <ellipse cx="240" cy="320" rx="125" ry="28"/><text x="240" y="325" fill="#e6edf3" font-size="12" text-anchor="middle">Gestioneaza catalog produse</text>
  </g>

  <g stroke="#58a6ff" fill="none">
    <circle cx="70" cy="120" r="18"/><line x1="70" y1="138" x2="70" y2="168"/><line x1="45" y1="155" x2="95" y2="155"/>
    <line x1="70" y1="168" x2="50" y2="195"/><line x1="70" y1="168" x2="90" y2="195"/>
    <text x="70" y="215" fill="#8b949e" font-size="12" text-anchor="middle">Client</text>
    <line x1="88" y1="120" x2="225" y2="100"/>
    <line x1="88" y1="140" x2="225" y2="170"/>
    <line x1="88" y1="155" x2="225" y2="240"/>
  </g>

  <g stroke="#79c0ff" fill="none">
    <circle cx="70" cy="300" r="18"/><line x1="70" y1="318" x2="70" y2="348"/><line x1="45" y1="335" x2="95" y2="335"/>
    <text x="70" y="375" fill="#8b949e" font-size="12" text-anchor="middle">Admin</text>
    <line x1="88" y1="310" x2="115" y2="320"/>
    <line x1="88" y1="320" x2="440" y2="320"/>
    <line x1="88" y1="330" x2="435" y2="320"/>
  </g>

  <g stroke="#bc8cff" fill="none">
    <circle cx="750" cy="170" r="18"/><text x="750" y="215" fill="#8b949e" font-size="11" text-anchor="middle">Sistem Plati</text>
    <line x1="732" y1="170" x2="620" y2="170"/>
  </g>

  <g stroke="#6e7681" stroke-dasharray="5,3" fill="none" marker-end="url(#arr)">
    <defs><marker id="arr" markerWidth="8" markerHeight="8" refX="6" refY="3" orient="auto"><path d="M0,0 L6,3 L0,6" fill="#6e7681"/></marker></defs>
    <line x1="415" y1="100" x2="432" y2="100"/><text x="420" y="88" fill="#6e7681" font-size="10">include</text>
    <line x1="415" y1="170" x2="420" y2="170"/><text x="420" y="158" fill="#6e7681" font-size="10">include</text>
    <line x1="320" y1="198" x2="320" y2="212"/><text x="355" y="208" fill="#6e7681" font-size="10">extend</text>
  </g>
</svg>
